<?xml version="1.0" standalone="no"?>
<!DOCTYPE svg PUBLIC "-//W3C//DTD SVG 20010904//EN"
 "http://www.w3.org/TR/2001/REC-SVG-20010904/DTD/svg10.dtd">
<svg version="1.0" xmlns="http://www.w3.org/2000/svg"
 width="50.000000pt" height="50.000000pt" viewBox="0 0 50.000000 50.000000"
 preserveAspectRatio="xMidYMid meet">

<g transform="translate(0.000000,50.000000) scale(0.100000,-0.100000)"
fill="#000000" stroke="none">
<path d="M240 413 l0 -87 -30 29 c-16 16 -32 26 -35 24 -2 -3 13 -23 35 -44
l40 -39 40 39 c22 21 37 41 35 44 -3 2 -19 -8 -35 -24 l-30 -29 0 87 c0 51 -4
87 -10 87 -6 0 -10 -36 -10 -87z"/>
<path d="M240 180 c0 -22 5 -40 10 -40 6 0 10 18 10 40 0 22 -4 40 -10 40 -5
0 -10 -18 -10 -40z"/>
<path d="M100 152 c0 -14 49 -56 57 -49 3 4 -4 18 -17 32 -24 25 -40 32 -40
17z"/>
<path d="M360 135 c-13 -14 -20 -28 -17 -32 8 -7 57 35 57 49 0 15 -16 8 -40
-17z"/>
<path d="M199 95 c-14 -8 -32 -28 -39 -45 -12 -30 -13 -30 -86 -30 -43 0 -74
-4 -74 -10 0 -6 90 -10 250 -10 160 0 250 4 250 10 0 6 -31 10 -74 10 -73 0
-74 0 -86 30 -22 53 -88 74 -141 45z m106 -30 c40 -39 32 -45 -55 -45 -87 0
-95 6 -55 45 32 33 78 33 110 0z"/>
</g>
</svg>
